<svg width="27" height="18" viewBox="0 0 27 18" fill="none" xmlns="http://www.w3.org/2000/svg">
<g clip-path="url(#clip0_330_2711)">
<path d="M-0.0625 -0.195312H35.8682V17.77H-0.0625V-0.195312Z" fill="#308738"/>
<path d="M-0.0625 -0.195312H35.8682V8.78736H-0.0625V-0.195312Z" fill="#3081F7"/>
<path d="M-0.0625 5.55469H35.8682V12.0222H-0.0625V5.55469Z" fill="#EE162E"/>
<path d="M-0.0625 5.91406H35.8682V11.663H-0.0625V5.91406Z" fill="white"/>
<path d="M4.96834 4.84293C6.15898 4.84293 7.12418 3.87773 7.12418 2.68709C7.12418 1.49645 6.15898 0.53125 4.96834 0.53125C3.7777 0.53125 2.8125 1.49645 2.8125 2.68709C2.8125 3.87773 3.7777 4.84293 4.96834 4.84293Z" fill="white"/>
<path d="M5.68514 4.84293C6.87578 4.84293 7.84098 3.87773 7.84098 2.68709C7.84098 1.49645 6.87578 0.53125 5.68514 0.53125C4.4945 0.53125 3.5293 1.49645 3.5293 2.68709C3.5293 3.87773 4.4945 4.84293 5.68514 4.84293Z" fill="#3081F7"/>
<path d="M9.71094 3.97656L9.5777 4.38663L9.78273 4.45325" fill="white"/>
<path d="M9.71094 3.97656L9.84418 4.38663L9.63914 4.45325" fill="white"/>
<path d="M10.1211 4.25781H9.68993V4.4734" fill="white"/>
<path d="M10.1211 4.25781L9.77227 4.51125L9.64555 4.33684" fill="white"/>
<path d="M9.29688 4.27344L9.6457 4.52687L9.77241 4.35246" fill="white"/>
<path d="M9.29688 4.27344H9.72804V4.48902" fill="white"/>
<path d="M9.96484 4.75781L9.83161 4.34775L9.62657 4.41437" fill="white"/>
<path d="M9.96484 4.75781L9.61602 4.50438L9.74274 4.32997" fill="white"/>
<path d="M9.45312 4.75781L9.80195 4.50438L9.67523 4.32997" fill="white"/>
<path d="M9.45312 4.75781L9.58636 4.34775L9.7914 4.41437" fill="white"/>
<path d="M9.71094 2.24219L9.5777 2.65225L9.78273 2.71887" fill="white"/>
<path d="M9.71094 2.24219L9.84418 2.65225L9.63914 2.71887" fill="white"/>
<path d="M10.1211 2.52344H9.68993V2.73902" fill="white"/>
<path d="M10.1211 2.52344L9.77227 2.77687L9.64555 2.60246" fill="white"/>
<path d="M9.29688 2.54688L9.6457 2.80031L9.77241 2.6259" fill="white"/>
<path d="M9.29688 2.54688H9.72804V2.76246" fill="white"/>
<path d="M9.96484 3.03906L9.83161 2.629L9.62657 2.69562" fill="white"/>
<path d="M9.96484 3.03906L9.61602 2.78563L9.74274 2.61122" fill="white"/>
<path d="M9.45312 3.01562L9.80195 2.76219L9.67523 2.58778" fill="white"/>
<path d="M9.45312 3.01562L9.58636 2.60556L9.7914 2.67218" fill="white"/>
<path d="M9.71094 0.539062L9.5777 0.949128L9.78273 1.01575" fill="white"/>
<path d="M9.71094 0.539062L9.84418 0.949128L9.63914 1.01575" fill="white"/>
<path d="M10.1211 0.820312H9.68993V1.0359" fill="white"/>
<path d="M10.1211 0.820312L9.77227 1.07375L9.64555 0.899336" fill="white"/>
<path d="M9.29688 0.828125L9.6457 1.08156L9.77241 0.907148" fill="white"/>
<path d="M9.29688 0.828125H9.72804V1.04371" fill="white"/>
<path d="M9.96484 1.3125L9.83161 0.902435L9.62657 0.969054" fill="white"/>
<path d="M9.96484 1.3125L9.61602 1.05907L9.74274 0.884654" fill="white"/>
<path d="M9.45312 1.3125L9.80195 1.05907L9.67523 0.884654" fill="white"/>
<path d="M9.45312 1.3125L9.58636 0.902435L9.7914 0.969054" fill="white"/>
<path d="M11.4336 3.97656L11.3004 4.38663L11.5054 4.45325" fill="white"/>
<path d="M11.4336 3.97656L11.5668 4.38663L11.3618 4.45325" fill="white"/>
<path d="M11.8477 4.25781H11.4165V4.4734" fill="white"/>
<path d="M11.8477 4.25781L11.4988 4.51125L11.3721 4.33684" fill="white"/>
<path d="M11.0293 4.27344L11.3781 4.52687L11.5048 4.35246" fill="white"/>
<path d="M11.0293 4.27344H11.4605V4.48902" fill="white"/>
<path d="M11.6816 4.75781L11.5484 4.34775L11.3434 4.41437" fill="white"/>
<path d="M11.6816 4.75781L11.3328 4.50438L11.4595 4.32997" fill="white"/>
<path d="M11.1816 4.75781L11.5305 4.50438L11.4037 4.32997" fill="white"/>
<path d="M11.1816 4.75781L11.3149 4.34775L11.5199 4.41437" fill="white"/>
<path d="M11.4336 2.24219L11.3004 2.65225L11.5054 2.71887" fill="white"/>
<path d="M11.4336 2.24219L11.5668 2.65225L11.3618 2.71887" fill="white"/>
<path d="M11.8477 2.52344H11.4165V2.73902" fill="white"/>
<path d="M11.8477 2.52344L11.4988 2.77687L11.3721 2.60246" fill="white"/>
<path d="M11.0293 2.54688L11.3781 2.80031L11.5048 2.6259" fill="white"/>
<path d="M11.0293 2.54688H11.4605V2.76246" fill="white"/>
<path d="M11.6816 3.03906L11.5484 2.629L11.3434 2.69562" fill="white"/>
<path d="M11.6816 3.03906L11.3328 2.78563L11.4595 2.61122" fill="white"/>
<path d="M11.1816 3.02344L11.5305 2.77L11.4037 2.59559" fill="white"/>
<path d="M11.1816 3.02344L11.3149 2.61337L11.5199 2.67999" fill="white"/>
<path d="M11.4336 0.539062L11.3004 0.949128L11.5054 1.01575" fill="white"/>
<path d="M11.4336 0.539062L11.5668 0.949128L11.3618 1.01575" fill="white"/>
<path d="M11.8477 0.820312H11.4165V1.0359" fill="white"/>
<path d="M11.8477 0.820312L11.4988 1.07375L11.3721 0.899336" fill="white"/>
<path d="M11.0293 0.828125L11.3781 1.08156L11.5048 0.907148" fill="white"/>
<path d="M11.0293 0.828125H11.4605V1.04371" fill="white"/>
<path d="M11.6816 1.3125L11.5484 0.902435L11.3434 0.969054" fill="white"/>
<path d="M11.6816 1.3125L11.3328 1.05907L11.4595 0.884654" fill="white"/>
<path d="M11.1816 1.30469L11.5305 1.05125L11.4037 0.876842" fill="white"/>
<path d="M11.1816 1.30469L11.3149 0.894622L11.5199 0.961241" fill="white"/>
<path d="M13.1543 3.97656L13.0211 4.38663L13.2261 4.45325" fill="white"/>
<path d="M13.1543 3.97656L13.2875 4.38663L13.0825 4.45325" fill="white"/>
<path d="M13.5684 4.25781H13.1372V4.4734" fill="white"/>
<path d="M13.5684 4.25781L13.2195 4.51125L13.0928 4.33684" fill="white"/>
<path d="M12.748 4.27344L13.0969 4.52687L13.2236 4.35246" fill="white"/>
<path d="M12.748 4.27344H13.1792V4.48902" fill="white"/>
<path d="M13.4121 4.75781L13.2789 4.34775L13.0738 4.41437" fill="white"/>
<path d="M13.4121 4.75781L13.0633 4.50438L13.19 4.32997" fill="white"/>
<path d="M12.9043 4.75781L13.2531 4.50438L13.1264 4.32997" fill="white"/>
<path d="M12.9043 4.75781L13.0375 4.34775L13.2426 4.41437" fill="white"/>
<path d="M13.1543 2.24219L13.0211 2.65225L13.2261 2.71887" fill="white"/>
<path d="M13.1543 2.24219L13.2875 2.65225L13.0825 2.71887" fill="white"/>
<path d="M13.5684 2.52344H13.1372V2.73902" fill="white"/>
<path d="M13.5684 2.52344L13.2195 2.77687L13.0928 2.60246" fill="white"/>
<path d="M12.748 2.54688L13.0969 2.80031L13.2236 2.6259" fill="white"/>
<path d="M12.748 2.54688H13.1792V2.76246" fill="white"/>
<path d="M13.4121 3.03906L13.2789 2.629L13.0738 2.69562" fill="white"/>
<path d="M13.4121 3.03906L13.0633 2.78563L13.19 2.61122" fill="white"/>
<path d="M12.9043 3.01562L13.2531 2.76219L13.1264 2.58778" fill="white"/>
<path d="M12.9043 3.01562L13.0375 2.60556L13.2426 2.67218" fill="white"/>
<path d="M13.1543 0.539062L13.0211 0.949128L13.2261 1.01575" fill="white"/>
<path d="M13.1543 0.539062L13.2875 0.949128L13.0825 1.01575" fill="white"/>
<path d="M13.5684 0.820312H13.1372V1.0359" fill="white"/>
<path d="M13.5684 0.820312L13.2195 1.07375L13.0928 0.899336" fill="white"/>
<path d="M12.748 0.828125L13.0969 1.08156L13.2236 0.907148" fill="white"/>
<path d="M12.748 0.828125H13.1792V1.04371" fill="white"/>
<path d="M13.4121 1.3125L13.2789 0.902435L13.0738 0.969054" fill="white"/>
<path d="M13.4121 1.3125L13.0633 1.05907L13.19 0.884654" fill="white"/>
<path d="M12.9043 1.3125L13.2531 1.05907L13.1264 0.884654" fill="white"/>
<path d="M12.9043 1.3125L13.0375 0.902435L13.2426 0.969054" fill="white"/>
<path d="M6.26562 3.97656L6.13239 4.38663L6.33742 4.45325" fill="white"/>
<path d="M6.26562 3.97656L6.39886 4.38663L6.19383 4.45325" fill="white"/>
<path d="M6.67578 4.26562H6.24461V4.48121" fill="white"/>
<path d="M6.67578 4.26562L6.32696 4.51906L6.20024 4.34465" fill="white"/>
<path d="M5.85352 4.28125L6.20234 4.53468L6.32906 4.36027" fill="white"/>
<path d="M5.85352 4.28125H6.28468V4.49683" fill="white"/>
<path d="M6.51953 4.76562L6.38629 4.35556L6.18126 4.42218" fill="white"/>
<path d="M6.51953 4.76562L6.17071 4.51219L6.29743 4.33778" fill="white"/>
<path d="M6.00781 4.75781L6.35663 4.50438L6.22992 4.32997" fill="white"/>
<path d="M6.00781 4.75781L6.14105 4.34775L6.34608 4.41437" fill="white"/>
<path d="M7.98633 3.97656L7.85309 4.38663L8.05812 4.45325" fill="white"/>
<path d="M7.98633 3.97656L8.11957 4.38663L7.91453 4.45325" fill="white"/>
<path d="M8.39258 4.26562H7.96141V4.48121" fill="white"/>
<path d="M8.39258 4.26562L8.04376 4.51906L7.91704 4.34465" fill="white"/>
<path d="M7.57422 4.28125L7.92304 4.53468L8.04976 4.36027" fill="white"/>
<path d="M7.57422 4.28125H8.00539V4.49683" fill="white"/>
<path d="M8.23438 4.76562L8.10114 4.35556L7.8961 4.42218" fill="white"/>
<path d="M8.23438 4.76562L7.88555 4.51219L8.01227 4.33778" fill="white"/>
<path d="M7.73242 4.75781L8.08124 4.50438L7.95453 4.32997" fill="white"/>
<path d="M7.73242 4.75781L7.86566 4.34775L8.07069 4.41437" fill="white"/>
<path d="M7.98633 2.24219L7.85309 2.65225L8.05812 2.71887" fill="white"/>
<path d="M7.98633 2.24219L8.11957 2.65225L7.91453 2.71887" fill="white"/>
<path d="M8.39258 2.52344H7.96141V2.73902" fill="white"/>
<path d="M8.39258 2.52344L8.04376 2.77687L7.91704 2.60246" fill="white"/>
<path d="M7.57422 2.54688L7.92304 2.80031L8.04976 2.6259" fill="white"/>
<path d="M7.57422 2.54688H8.00539V2.76246" fill="white"/>
<path d="M8.23438 3.03906L8.10114 2.629L7.8961 2.69562" fill="white"/>
<path d="M8.23438 3.03906L7.88555 2.78563L8.01227 2.61122" fill="white"/>
<path d="M7.73242 3.02344L8.08124 2.77L7.95453 2.59559" fill="white"/>
<path d="M7.73242 3.02344L7.86566 2.61337L8.07069 2.67999" fill="white"/>
</g>
<defs>
<clipPath id="clip0_330_2711">
<rect width="26.8485" height="17.899" fill="white"/>
</clipPath>
</defs>
</svg>
